<svg xmlns="http://www.w3.org/2000/svg" width="48" height="48" fill="none">
  <path fill="black" d="M10.588 39.391c-2.187 0-3.952-.727-5.294-2.18-1.342-1.455-2.013-3.605-2.013-6.45v-2.014c0-1.118-.236-2.032-.709-2.74-.46-.708-1.087-1.063-1.882-1.063H0v-2.553h.69c.795 0 1.423-.348 1.882-1.044.473-.696.709-1.61.709-2.74V16.63c0-2.859.67-5.008 2.013-6.45C6.636 8.727 8.401 8 10.588 8h.932v2.61h-.932c-1.417 0-2.473.478-3.169 1.435-.696.944-1.044 2.243-1.044 3.896v2.2c0 1.367-.149 2.43-.447 3.187-.298.758-.733 1.311-1.305 1.66-.56.335-1.237.546-2.032.633v.15c.795.086 1.473.285 2.032.596.572.31 1.007.845 1.305 1.603.298.758.447 1.851.447 3.28v2.2c0 1.653.348 2.952 1.044 3.896.696.957 1.752 1.435 3.169 1.435h.932v2.61h-.932Z" />
  <path fill="black" d="M19.633 27.296c4.481 0 8.112-2.956 8.112-6.6 0-3.646-3.631-6.6-8.112-6.6-4.482 0-8.113 2.954-8.113 6.6 0 1.447.574 2.786 1.545 3.877a3.45 3.45 0 0 1-.554.926 4.37 4.37 0 0 1-.686.675.35.35 0 0 1-.043.03l-.008.008a.585.585 0 0 0-.222.667.63.63 0 0 0 .592.416c.85 0 1.709-.21 2.422-.468.36-.132.695-.278.983-.428a9.526 9.526 0 0 0 4.084.896Zm9.36-6.6c0 4.21-3.865 7.383-8.444 7.762.948 2.79 4.091 4.837 7.82 4.837 1.49 0 2.882-.326 4.083-.896.293.15.625.297.983.428.714.259 1.572.468 2.422.468.27 0 .511-.168.593-.416a.59.59 0 0 0-.226-.671l-.008-.008c-.008-.007-.023-.015-.043-.03a4.378 4.378 0 0 1-.687-.675 3.51 3.51 0 0 1-.553-.926c.971-1.087 1.544-2.426 1.544-3.877 0-3.48-3.31-6.334-7.511-6.582.015.192.023.387.023.582l.004.003Z" />
  <path fill="black" d="M36.48 39.391v-2.61h.95c1.417 0 2.474-.478 3.17-1.435.695-.944 1.044-2.243 1.044-3.896v-2.2c0-1.429.149-2.522.447-3.28.298-.758.727-1.293 1.286-1.603.572-.311 1.255-.51 2.05-.597v-.149c-.795-.087-1.478-.298-2.05-.634-.56-.348-.988-.9-1.286-1.659-.298-.758-.447-1.82-.447-3.187v-2.2c0-1.653-.349-2.952-1.044-3.896-.696-.957-1.753-1.435-3.17-1.435h-.95V8h.95c2.188 0 3.953.727 5.295 2.181 1.342 1.442 2.013 3.591 2.013 6.45v1.976c0 1.13.23 2.044.69 2.74.46.696 1.087 1.044 1.882 1.044H48v2.554h-.69c-.795 0-1.423.354-1.882 1.062-.46.708-.69 1.622-.69 2.74v2.013c0 2.846-.671 4.984-2.013 6.413-1.343 1.429-3.107 2.168-5.294 2.218h-.951Z" />
</svg>
